<?xml version="1.0" ?>

<!-- Uploaded to: SVG Repo, www.svgrepo.com, Generator: SVG Repo Mixer Tools -->
<svg width="50px" height="50px" viewBox="0 0 281.25 281.25" id="svg2" version="1.1" xml:space="preserve" xmlns="http://www.w3.org/2000/svg" xmlns:cc="http://creativecommons.org/ns#" xmlns:dc="http://purl.org/dc/elements/1.1/" xmlns:rdf="http://www.w3.org/1999/02/22-rdf-syntax-ns#" xmlns:svg="http://www.w3.org/2000/svg">

<defs id="defs4"/>

<g id="layer1" transform="translate(6111.1064,-3106.6404)">

<path d="m -5970.4802,3145.4807 c -56.159,-1e-4 -101.7883,45.6257 -101.7883,101.7847 0,56.1591 45.6293,101.7847 101.7883,101.7847 56.1591,0 101.7847,-45.6257 101.7847,-101.7847 0,-56.159 -45.6256,-101.7847 -101.7847,-101.7847 z m 0,9.375 c 51.0925,0 92.4097,41.3173 92.4097,92.4097 0,51.0924 -41.3172,92.4097 -92.4097,92.4097 -51.0924,0 -92.4133,-41.3172 -92.4133,-92.4097 0,-51.0924 41.3209,-92.4098 92.4133,-92.4097 z m 20.7276,44.1596 a 4.6875,4.6875 0 0 0 -3.2831,1.4483 l -41.6675,43.5627 a 4.6875,4.6875 0 0 0 -0.3534,0.5108 4.6875,4.6875 0 0 0 -0.423,0.6098 4.6875,4.6875 0 0 0 -0.2398,0.683 4.6875,4.6875 0 0 0 -0.2106,0.7031 4.6875,4.6875 0 0 0 -0.016,0.7324 4.6875,4.6875 0 0 0 0.016,0.7343 4.6875,4.6875 0 0 0 0.2069,0.6884 4.6875,4.6875 0 0 0 0.2435,0.6995 4.6875,4.6875 0 0 0 0.4138,0.5951 4.6875,4.6875 0 0 0 0.3626,0.5237 l 41.6675,43.5626 a 4.6875,4.6875 0 0 0 6.6302,0.1465 4.6875,4.6875 0 0 0 0.1465,-6.6284 l -38.5693,-40.3217 38.5693,-40.3217 a 4.6875,4.6875 0 0 0 -0.1465,-6.6284 4.6875,4.6875 0 0 0 -3.3471,-1.3 z" id="circle1151" style="color:#000000;fill:#3d3d3d;fill-opacity:1;fill-rule:evenodd;stroke-linecap:round;stroke-linejoin:round;-inkscape-stroke:none"/>

</g>

</svg>