<?xml version="1.0" ?>

<!-- Uploaded to: SVG Repo, www.svgrepo.com, Generator: SVG Repo Mixer Tools -->
<svg width="5px" height="5px" viewBox="0 0 281.25 281.25" id="svg2" version="1.1" xml:space="preserve" xmlns="http://www.w3.org/2000/svg" xmlns:cc="http://creativecommons.org/ns#" xmlns:dc="http://purl.org/dc/elements/1.1/" xmlns:rdf="http://www.w3.org/1999/02/22-rdf-syntax-ns#" xmlns:svg="http://www.w3.org/2000/svg">

<defs id="defs4"/>

<g id="layer1" transform="translate(7276.1064,-4597.9898)">

<path d="m -7135.4814,4636.829 c -56.159,0 -101.7865,45.6275 -101.7865,101.7865 0,56.1591 45.6274,101.7847 101.7865,101.7847 56.1591,0 101.7865,-45.6256 101.7865,-101.7847 0,-56.159 -45.6275,-101.7865 -101.7865,-101.7865 z m 0,9.375 c 51.0924,0 92.4115,41.319 92.4115,92.4115 0,51.0925 -41.319,92.4097 -92.4115,92.4097 -51.0924,0 -92.4115,-41.3172 -92.4115,-92.4097 0,-51.0925 41.3191,-92.4115 92.4115,-92.4115 z m 0,38.313 a 4.6875,4.6875 0 0 0 -4.6875,4.6875 v 44.7235 h -44.7217 a 4.6875,4.6875 0 0 0 -4.6875,4.6875 4.6875,4.6875 0 0 0 4.6875,4.6875 h 44.7217 v 44.7217 a 4.6875,4.6875 0 0 0 4.6875,4.6875 4.6875,4.6875 0 0 0 4.6875,-4.6875 v -44.7217 h 44.7217 a 4.6875,4.6875 0 0 0 4.6875,-4.6875 4.6875,4.6875 0 0 0 -4.6875,-4.6875 h -44.7217 v -44.7235 a 4.6875,4.6875 0 0 0 -4.6875,-4.6875 z" id="circle1167" style="color:#000000;fill:#3d3d3d;fill-opacity:1;fill-rule:evenodd;stroke-linecap:round;stroke-linejoin:round;-inkscape-stroke:none"/>

</g>

</svg>