<?xml version="1.0" ?>

<!-- Uploaded to: SVG Repo, www.svgrepo.com, Generator: SVG Repo Mixer Tools -->
<svg width="40px" height="40px" viewBox="0 0 281.25 281.25" id="svg2" version="1.1" xml:space="preserve" xmlns="http://www.w3.org/2000/svg" xmlns:cc="http://creativecommons.org/ns#" xmlns:dc="http://purl.org/dc/elements/1.1/" xmlns:rdf="http://www.w3.org/1999/02/22-rdf-syntax-ns#" xmlns:svg="http://www.w3.org/2000/svg">

<defs id="defs4"/>

<g id="layer1" transform="translate(6111.1064,-4899.0259)">

<path d="m -5995.5784,4939.3687 a 4.6879687,4.6879687 0 0 0 -4.6875,4.6875 v 27.7972 h -60.4194 a 4.6875,4.6875 0 0 0 -4.6875,4.6875 4.6875,4.6875 0 0 0 4.6875,4.6875 h 14.1999 v 154.0173 a 4.6875,4.6875 0 0 0 4.6875,4.6875 h 142.6336 a 4.6875,4.6875 0 0 0 1.7945,-0.357 4.6875,4.6875 0 0 0 2.893,-4.3305 v -154.0173 h 14.1999 a 4.6875,4.6875 0 0 0 4.6875,-4.6875 4.6875,4.6875 0 0 0 -4.6875,-4.6875 h -60.4212 v -27.7972 a 4.6879687,4.6879687 0 0 0 -4.6875,-4.6875 z m 4.6875,9.375 h 40.8178 v 23.1097 h -40.8178 z m -46.2195,32.4847 h 133.2586 v 149.3298 h -133.2586 z m 30.8093,19.0759 a 4.6875,4.6875 0 0 0 -4.6875,4.6875 v 101.803 a 4.6875,4.6875 0 0 0 4.6875,4.6875 4.6875,4.6875 0 0 0 4.6875,-4.6875 v -101.803 a 4.6875,4.6875 0 0 0 -4.6875,-4.6875 z m 35.8209,0 a 4.6875,4.6875 0 0 0 -4.6875,4.6875 v 101.803 a 4.6875,4.6875 0 0 0 4.6875,4.6875 4.6875,4.6875 0 0 0 4.6875,-4.6875 v -101.803 a 4.6875,4.6875 0 0 0 -4.6875,-4.6875 z m 35.8173,0 a 4.6875,4.6875 0 0 0 -4.6875,4.6875 v 101.803 a 4.6875,4.6875 0 0 0 4.6875,4.6875 4.6875,4.6875 0 0 0 4.6875,-4.6875 v -101.803 a 4.6875,4.6875 0 0 0 -4.6875,-4.6875 z" id="path8686" style="color:#000000;fill:#3d3d3d;fill-opacity:1;fill-rule:evenodd;stroke-linecap:round;stroke-linejoin:round;-inkscape-stroke:none"/>

</g>

</svg>