<?xml version="1.0" ?>

<!-- Uploaded to: SVG Repo, www.svgrepo.com, Generator: SVG Repo Mixer Tools -->
<svg width="30px" height="30px" viewBox="0 0 281.25 281.25" id="svg2" version="1.1" xml:space="preserve" xmlns="http://www.w3.org/2000/svg" xmlns:cc="http://creativecommons.org/ns#" xmlns:dc="http://purl.org/dc/elements/1.1/" xmlns:rdf="http://www.w3.org/1999/02/22-rdf-syntax-ns#" xmlns:svg="http://www.w3.org/2000/svg">

<defs id="defs4"/>

<g id="layer1" transform="translate(6402.3564,-4296.9987)">

<path d="m -6251.0783,4337.2868 a 4.6879687,4.6879687 0 0 0 -4.6875,4.6875 v 128.7945 a 4.6879687,4.6879687 0 0 0 0.9814,2.8674 l 19.4129,25.0965 a 4.6879687,4.6879687 0 0 0 7.4157,0 l 19.4147,-25.0965 a 4.6879687,4.6879687 0 0 0 0.9778,-2.8674 v -128.7945 a 4.6879687,4.6879687 0 0 0 -4.6875,-4.6875 z m 4.6875,9.375 h 29.4525 v 122.5067 l -14.7235,19.0338 -14.729,-19.0357 z m -109.3323,64.0191 a 4.6879687,4.6879687 0 0 0 -4.6875,4.6875 v 117.9053 a 4.6879687,4.6879687 0 0 0 4.6875,4.6875 h 187.9834 a 4.6879687,4.6879687 0 0 0 4.6875,-4.6875 v -117.9053 a 4.6879687,4.6879687 0 0 0 -4.6875,-4.6875 h -21.308 a 4.6875,4.6875 0 0 0 -4.6875,4.6875 4.6875,4.6875 0 0 0 4.6875,4.6875 h 16.6205 v 108.5303 h -178.6084 v -108.5303 h 74.3884 a 4.6875,4.6875 0 0 0 4.6875,-4.6875 4.6875,4.6875 0 0 0 -4.6875,-4.6875 z m 25.0964,78.1293 a 4.6875,4.6875 0 0 0 -4.6875,4.6875 4.6875,4.6875 0 0 0 4.6875,4.6875 h 50.6653 a 4.6875,4.6875 0 0 0 4.6875,-4.6875 4.6875,4.6875 0 0 0 -4.6875,-4.6875 z" id="rect8210" style="color:#000000;fill:#3d3d3d;fill-opacity:1;fill-rule:evenodd;stroke-linecap:round;stroke-linejoin:round;-inkscape-stroke:none"/>

</g>

</svg>